<svg width="50" height="50" viewBox="0 0 50 50" fill="none" xmlns="http://www.w3.org/2000/svg">
<rect width="50" height="50" rx="14" fill="#F9F9F9"/>
<path d="M29.4836 20.539L28.9175 33.9232M21.0825 33.9232L20.5164 20.539M36.8276 15.7652C37.3873 15.8426 37.9436 15.9244 38.5 16.0121M36.8276 15.7652L35.08 36.4112C35.0087 37.2518 34.5908 38.0369 33.91 38.6096C33.2292 39.1822 32.3357 39.5002 31.408 39.5H18.592C17.6643 39.5002 16.7708 39.1822 16.09 38.6096C15.4092 38.0369 14.9913 37.2518 14.92 36.4112L13.1724 15.7652M36.8276 15.7652C34.9391 15.5058 33.0407 15.3088 31.1364 15.1749M13.1724 15.7652C12.6127 15.8411 12.0564 15.9229 11.5 16.0106M13.1724 15.7652C15.0609 15.5058 16.9593 15.3088 18.8636 15.1749M31.1364 15.1749V13.8126C31.1364 12.0578 29.6473 10.5945 27.7164 10.5394C25.9059 10.4869 24.0941 10.4869 22.2836 10.5394C20.3527 10.5945 18.8636 12.0593 18.8636 13.8126V15.1749M31.1364 15.1749C27.0515 14.888 22.9485 14.888 18.8636 15.1749" stroke="black" stroke-width="1.5" stroke-linecap="round" stroke-linejoin="round"/>
</svg>
